<svg width="80" height="48" viewBox="0 0 80 48" fill="none" xmlns="http://www.w3.org/2000/svg">
<g clip-path="url(#clip0)">
<path d="M40.0028 1.95222L76.7498 23.9972L40.0028 46.0478L3.25578 24.0028L40.0028 1.95222ZM40.0028 0L0 24.0028L40.0028 48.0056L80.0056 24.0028L40.0028 0Z" fill="white"/>
<path d="M54.1371 23.8294C54.0482 16.0429 47.7533 9.76111 40.0028 9.76111C33.1301 9.76111 27.4075 14.6948 26.1296 21.2339C34.4913 18.5936 45.5421 18.8118 54.1371 23.8294Z" fill="white"/>
<path d="M25.8629 24.2713C26.0074 32.0075 32.28 38.2389 40.0028 38.2389C46.8144 38.2389 52.5037 33.3891 53.8426 26.9284C45.4587 21.4017 34.0357 21.3122 25.8629 24.2713Z" fill="white"/>
</g>
<defs>
<clipPath id="clip0">
<rect width="80" height="48" fill="white"/>
</clipPath>
</defs>
</svg>
