<svg width="62" height="62" viewBox="0 0 62 62" fill="none" xmlns="http://www.w3.org/2000/svg">
<path d="M31 1.86C47.0704 1.86 60.14 14.9296 60.14 31C60.14 47.0704 47.0704 60.14 31 60.14C14.9296 60.14 1.86 47.0704 1.86 31C1.86 14.9296 14.9296 1.86 31 1.86ZM31 0C13.8818 0 0 13.8818 0 31C0 48.1182 13.8818 62 31 62C48.1182 62 62 48.1182 62 31C62 13.8818 48.1182 0 31 0Z" fill="black"/>
<path d="M31 1.86C42.966 1.86 52.7 14.9296 52.7 31C52.7 47.0704 42.966 60.14 31 60.14C19.034 60.14 9.3 47.0704 9.3 31C9.3 14.9296 19.034 1.86 31 1.86ZM31 0C17.9862 0 7.44 13.8818 7.44 31C7.44 48.1182 17.9862 62 31 62C44.0138 62 54.56 48.1182 54.56 31C54.56 13.8818 44.0138 0 31 0Z" fill="black"/>
<path d="M31 1.86C34.627 1.86 39.68 12.9456 39.68 31C39.68 49.0544 34.627 60.14 31 60.14C27.373 60.14 22.32 49.0544 22.32 31C22.32 12.9456 27.373 1.86 31 1.86ZM31 0C25.1782 0 20.46 13.8818 20.46 31C20.46 48.1182 25.1782 62 31 62C36.8218 62 41.54 48.1182 41.54 31C41.54 13.8818 36.8218 0 31 0Z" fill="black"/>
<path d="M31 1.86C47.0704 1.86 60.14 14.9296 60.14 31C60.14 47.0704 47.0704 60.14 31 60.14C14.9296 60.14 1.86 47.0704 1.86 31C1.86 14.9296 14.9296 1.86 31 1.86ZM31 0C13.8818 0 0 13.8818 0 31C0 48.1182 13.8818 62 31 62C48.1182 62 62 48.1182 62 31C62 13.8818 48.1182 0 31 0Z" fill="black"/>
<path d="M31 9.30006C47.0704 9.30006 60.14 19.0341 60.14 31.0001C60.14 42.9661 47.0704 52.7001 31 52.7001C14.9296 52.7001 1.86 42.9661 1.86 31.0001C1.86 19.0341 14.9296 9.30006 31 9.30006ZM31 7.44006C13.8818 7.44006 0 17.9863 0 31.0001C0 44.0139 13.8818 54.5601 31 54.5601C48.1182 54.5601 62 44.0139 62 31.0001C62 17.9863 48.1182 7.44006 31 7.44006Z" fill="black"/>
<path d="M31 22.32C49.0544 22.32 60.14 27.373 60.14 31C60.14 34.627 49.0544 39.68 31 39.68C12.9456 39.68 1.86 34.627 1.86 31C1.86 27.373 12.9456 22.32 31 22.32ZM31 20.46C13.8818 20.46 0 25.1782 0 31C0 36.8218 13.8818 41.54 31 41.54C48.1182 41.54 62 36.8218 62 31C62 25.1782 48.1182 20.46 31 20.46Z" fill="black"/>
</svg>
